<svg width="65" height="74" viewBox="0 0 65 74" xmlns="http://www.w3.org/2000/svg"><title>CFB412C9-DAFD-4CD1-B4F6-835C52928EFC</title><g fill="#FFF" fill-rule="evenodd"><path d="M36.034 65.34h7.325v-7.282h-7.325v7.282zm8.513-9.643h-9.701c-.656 0-1.188.529-1.188 1.18v9.644c0 .652.532 1.181 1.188 1.181h9.701c.656 0 1.188-.529 1.188-1.18v-9.644c0-.652-.532-1.181-1.188-1.181zM21.58 65.34h7.326v-7.282h-7.325v7.282zm8.514-9.643h-9.701c-.657 0-1.188.529-1.188 1.18v9.644c0 .652.531 1.181 1.188 1.181h9.701c.656 0 1.188-.529 1.188-1.18v-9.644c0-.652-.532-1.181-1.188-1.181zM21.58 50.973h7.326v-7.282h-7.325v7.282zm8.514-9.643h-9.701c-.657 0-1.188.529-1.188 1.18v9.644c0 .652.531 1.181 1.188 1.181h9.701c.656 0 1.188-.529 1.188-1.18V42.51c0-.652-.532-1.181-1.188-1.181zM7.128 65.34h7.325v-7.282H7.128v7.282zm8.513-9.643H5.94c-.657 0-1.188.529-1.188 1.18v9.644c0 .652.531 1.181 1.188 1.181h9.701c.656 0 1.188-.529 1.188-1.18v-9.644c0-.652-.532-1.181-1.188-1.181zM50.487 36.606h7.325v-2.361h-7.325v2.361zM59 31.883H49.3c-.656 0-1.188.529-1.188 1.18v4.724c0 .652.532 1.181 1.188 1.181H59c.656 0 1.188-.529 1.188-1.18v-4.724c0-.652-.532-1.181-1.188-1.181zM36.034 50.973h7.325v-7.282h-7.325v7.282zm8.513-9.643h-9.701c-.656 0-1.188.529-1.188 1.18v9.644c0 .652.532 1.181 1.188 1.181h9.701c.656 0 1.188-.529 1.188-1.18V42.51c0-.652-.532-1.181-1.188-1.181zM7.128 50.973h7.325v-7.282H7.128v7.282zm8.513-9.643H5.94c-.657 0-1.188.529-1.188 1.18v9.644c0 .652.531 1.181 1.188 1.181h9.701c.656 0 1.188-.529 1.188-1.18V42.51c0-.652-.532-1.181-1.188-1.181zM36.034 36.606h7.325v-2.361h-7.325v2.361zm8.513-4.723h-9.701c-.656 0-1.188.529-1.188 1.18v4.724c0 .652.532 1.181 1.188 1.181h9.701c.656 0 1.188-.529 1.188-1.18v-4.724c0-.652-.532-1.181-1.188-1.181z"/><path d="M62.564 68.096c0 1.953-1.599 3.542-3.564 3.542H5.94c-1.965 0-3.564-1.589-3.564-3.542V5.904c0-1.953 1.599-3.542 3.564-3.542H59c1.965 0 3.564 1.589 3.564 3.542v62.192zM59 0H5.94C2.664 0 0 2.649 0 5.904v62.192C0 71.35 2.664 74 5.94 74H59c3.275 0 5.94-2.649 5.94-5.904V5.904C64.94 2.65 62.275 0 59 0z"/><path d="M59 41.33H49.3c-.656 0-1.188.528-1.188 1.18v24.011c0 .652.532 1.181 1.188 1.181H59c.656 0 1.188-.529 1.188-1.18V51.956c0-.652-.532-1.18-1.188-1.18-.656 0-1.188.528-1.188 1.18V65.34h-7.325V43.691h7.325v3.543c0 .652.532 1.18 1.188 1.18.656 0 1.188-.528 1.188-1.18v-4.723c0-.653-.532-1.181-1.188-1.181M59 6.298H5.94c-.657 0-1.188.529-1.188 1.18v19.288c0 .652.531 1.18 1.188 1.18h9.701c.656 0 1.188-.528 1.188-1.18 0-.652-.532-1.18-1.188-1.18H7.128V8.66h50.684v16.925h-37.42c-.655 0-1.187.529-1.187 1.18 0 .653.532 1.182 1.188 1.182H59c.656 0 1.188-.529 1.188-1.181V7.479c0-.652-.532-1.181-1.188-1.181"/><path d="M49.497 13.383h4.752c.656 0 1.187-.529 1.187-1.18 0-.653-.531-1.182-1.187-1.182h-4.752c-.656 0-1.188.529-1.188 1.181s.532 1.181 1.188 1.181M49.497 22.83h4.752c.656 0 1.187-.529 1.187-1.181s-.531-1.18-1.187-1.18h-4.752c-.656 0-1.188.528-1.188 1.18 0 .652.532 1.18 1.188 1.18M48.309 18.5c0 .652.532 1.18 1.188 1.18.656 0 1.188-.528 1.188-1.18v-3.149c0-.652-.532-1.18-1.188-1.18-.656 0-1.188.528-1.188 1.18V18.5z"/></g></svg>