<svg width="54" height="68" viewBox="0 0 54 68" xmlns="http://www.w3.org/2000/svg"><title>209002F0-2153-4AF4-9131-97E85B2D7A5F</title><g fill="#FFF" fill-rule="evenodd"><path d="M31.902 21.022H47.78V14.19H31.902v6.832zm2.14-4.673H45.64v2.513H34.043v-2.513z"/><path d="M52.668.94A3.197 3.197 0 0 0 50.401 0H10.884A3.21 3.21 0 0 0 8.59.954a3.275 3.275 0 0 0-.933 2.287v9.044l.002 16.052c-.007.85.335 1.686.931 2.3.601.61 1.414.948 2.284.948h4.205v19.656a19.125 19.125 0 0 0-9.988-2.794c-2.592 0-4.706 2.128-4.706 4.747 0 2.619 2.112 4.746 4.709 4.746 5.508 0 9.988 4.51 9.988 10.06h2.143c0-6.74-5.442-12.22-12.131-12.22-1.414 0-2.563-1.157-2.563-2.586 0-1.427 1.15-2.588 2.563-2.588 3.791 0 7.39 1.222 10.41 3.53.326.248.762.29 1.125.11.364-.184.594-.561.594-.967l.002-33.047c0-.69.264-1.342.752-1.828a2.544 2.544 0 0 1 1.814-.757c.688 0 1.331.269 1.814.757a2.56 2.56 0 0 1 .751 1.825v19.343c0 .592.48 1.078 1.07 1.078.591 0 1.071-.483 1.071-1.078 0-.693.27-1.344.752-1.833a2.548 2.548 0 0 1 3.63-.005 2.61 2.61 0 0 1 .75 1.835v.003c0 .592.48 1.078 1.073 1.078.588 0 1.07-.483 1.07-1.078 0-.693.269-1.342.762-1.836a2.543 2.543 0 0 1 3.62 0c.485.492.752 1.145.752 1.836 0 .597.48 1.078 1.07 1.078.594 0 1.073-.483 1.073-1.078v-.003c0-.69.27-1.336.762-1.833a2.564 2.564 0 0 1 1.814-.757c.68 0 1.324.269 1.81.757.484.494.756 1.148.756 1.833v28.425h2.141l.01-28.42a4.747 4.747 0 0 0-1.378-3.357 4.658 4.658 0 0 0-3.328-1.392c-1.26 0-2.444.494-3.33 1.392a6.52 6.52 0 0 0-.317.345 4.686 4.686 0 0 0-.308-.342 4.647 4.647 0 0 0-3.333-1.397 4.628 4.628 0 0 0-3.322 1.391c-.11.11-.214.224-.311.343-.098-.12-.2-.236-.311-.343a4.658 4.658 0 0 0-3.328-1.391 4.63 4.63 0 0 0-2.568.767v-4.013h25.895c.86 0 1.666-.338 2.275-.949a3.288 3.288 0 0 0 .936-2.287V3.237c0-.86-.332-1.673-.946-2.298V.94zM9.798 3.238c0-.287.113-.56.308-.762.208-.205.506-.316.77-.316h39.522c.287 0 .556.111.757.308.263.268.319.568.319.773v.653L9.798 3.891v-.653zm0 2.813h41.67v4.072H9.798V6.051zM51.157 29.11c-.2.199-.472.31-.76.31H24.506v-9.188a4.72 4.72 0 0 0-1.379-3.355 4.65 4.65 0 0 0-3.333-1.389 4.664 4.664 0 0 0-3.327 1.387 4.713 4.713 0 0 0-1.382 3.357v9.188h-4.208c-.171 0-.496-.04-.76-.308a1.086 1.086 0 0 1-.31-.773L9.8 12.283h41.67v16.056c.003.287-.115.566-.313.77z"/><path d="M41.106 26.39h6.671v-2.162h-6.67zM31.902 26.39h6.676v-2.162h-6.676z"/></g></svg>