<svg width="62" height="62" viewBox="0 0 62 62" xmlns="http://www.w3.org/2000/svg"><title>78FCDC7E-FE2E-4552-B63A-A998CBD9F5C1</title><g fill-rule="nonzero" fill="none"><path d="M42.114 30.635h-7.505a4.198 4.198 0 0 0-3.004-3.003V16.974a1.05 1.05 0 1 0-2.101 0v10.658c-1.808.47-3.153 2.1-3.153 4.054a4.208 4.208 0 0 0 4.203 4.204c1.953 0 3.585-1.345 4.055-3.153h7.505a1.05 1.05 0 1 0 0-2.102zm-11.56 3.153a2.104 2.104 0 0 1-2.101-2.102c0-1.159.942-2.101 2.101-2.101 1.16 0 2.102.942 2.102 2.101 0 1.16-.942 2.102-2.102 2.102z" fill="#000"/><path d="M52.74 10.26l4.304 4.305a1.05 1.05 0 0 0 1.486 0c3.328-3.327 3.328-8.742 0-12.07-3.327-3.326-8.742-3.326-12.069 0a1.048 1.048 0 0 0 0 1.487l4.793 4.793-1.785 1.785c-5.023-4.502-11.653-7.247-18.914-7.247-7.26 0-13.89 2.745-18.913 7.247L9.856 8.775l4.793-4.793a1.048 1.048 0 0 0 0-1.486c-3.327-3.327-8.742-3.327-12.07 0-3.327 3.327-3.327 8.742 0 12.069a1.05 1.05 0 0 0 1.487 0L8.37 10.26l1.761 1.762c-4.917 5.104-7.95 12.035-7.95 19.664 0 10.401 5.63 19.508 13.999 24.448l-3.182 3.182a1.05 1.05 0 1 0 1.486 1.486l3.625-3.625a28.198 28.198 0 0 0 12.445 2.882c4.462 0 8.686-1.04 12.446-2.882l3.625 3.625a1.048 1.048 0 0 0 1.486 0 1.05 1.05 0 0 0 0-1.486l-3.182-3.182c8.369-4.94 13.998-14.047 13.998-24.448 0-7.629-3.032-14.56-7.95-19.664l1.763-1.762zm4.303-6.278c2.255 2.255 2.482 5.781.682 8.294L48.75 3.3c2.51-1.8 6.038-1.575 8.293.682zm-53.66 8.293c-1.8-2.512-1.572-6.038.683-8.293C6.32 1.727 9.849 1.5 12.359 3.3l-8.975 8.975zm27.171 45.682c-14.485 0-26.27-11.785-26.27-26.27 0-14.487 11.785-26.272 26.27-26.272 14.486 0 26.272 11.785 26.272 26.271S45.04 57.957 30.554 57.957z" fill="#1F2C3F"/><path d="M51.447 19.556a24.342 24.342 0 0 0-8.762-8.762c-.016-.011-.027-.03-.045-.04-.019-.01-.039-.01-.058-.02a24.013 24.013 0 0 0-12.027-3.218 24.002 24.002 0 0 0-12.026 3.218c-.02.01-.04.009-.058.02-.018.01-.028.029-.045.04a24.334 24.334 0 0 0-8.762 8.762c-.012.018-.03.028-.04.045-.01.018-.01.04-.02.058a24.016 24.016 0 0 0-3.218 12.027c0 4.377 1.176 8.483 3.219 12.027.01.02.008.039.019.058.014.026.036.045.053.07a24.353 24.353 0 0 0 8.749 8.737c.016.012.027.03.045.04.027.016.056.022.084.035a24.015 24.015 0 0 0 12 3.203c4.367 0 8.462-1.17 12.001-3.203.027-.013.057-.02.084-.035.018-.01.028-.028.045-.04a24.345 24.345 0 0 0 8.749-8.738c.017-.024.039-.043.053-.07.01-.017.01-.038.02-.057a24.016 24.016 0 0 0 3.218-12.027c0-4.377-1.176-8.482-3.219-12.027-.01-.019-.008-.039-.019-.058-.011-.017-.03-.028-.04-.045zM42.474 50.23l-.501-.868a1.05 1.05 0 1 0-1.82 1.051l.503.871a21.9 21.9 0 0 1-9.05 2.417v-.997a1.05 1.05 0 1 0-2.101 0v.997a21.883 21.883 0 0 1-9.05-2.417l.503-.87a1.051 1.051 0 0 0-1.82-1.052l-.501.868a22.202 22.202 0 0 1-6.624-6.623l.868-.501a1.051 1.051 0 0 0-1.05-1.82l-.872.503a21.904 21.904 0 0 1-2.417-9.05h.998a1.05 1.05 0 1 0 0-2.102h-1a21.895 21.895 0 0 1 2.417-9.05l.871.504a1.048 1.048 0 0 0 1.436-.385 1.051 1.051 0 0 0-.385-1.435l-.868-.504a22.214 22.214 0 0 1 6.624-6.623l.5.868a1.053 1.053 0 0 0 1.436.385c.503-.29.675-.934.385-1.436l-.503-.871a21.9 21.9 0 0 1 9.05-2.417v.997a1.05 1.05 0 1 0 2.101 0v-.997a21.883 21.883 0 0 1 9.05 2.417l-.503.871a1.051 1.051 0 0 0 1.82 1.05l.501-.867a22.202 22.202 0 0 1 6.624 6.623l-.868.502a1.051 1.051 0 0 0 1.05 1.82l.872-.504a21.904 21.904 0 0 1 2.417 9.05h-.998a1.05 1.05 0 1 0 0 2.102h.998a21.895 21.895 0 0 1-2.417 9.05l-.872-.503a1.05 1.05 0 1 0-1.05 1.82l.868.5a22.166 22.166 0 0 1-6.622 6.626z" fill="#1F2C3F"/></g></svg>