<svg width="68" height="63" viewBox="0 0 68 63" xmlns="http://www.w3.org/2000/svg"><title>E8B160A4-B45A-461E-A988-E3AFBF97C781</title><g fill="#000" fill-rule="evenodd"><path d="M65.028 50.321l-4.42 9.394-4.475-2.823 3.838-9.047 5.057 2.476zm2.91-.636c0-.042 0-.083-.015-.125 0-.041-.014-.083-.027-.124-.014-.042-.014-.083-.028-.11a.417.417 0 0 0-.056-.112.417.417 0 0 0-.055-.11.248.248 0 0 0-.07-.097c-.027-.028-.04-.07-.069-.097a.6.6 0 0 0-.097-.083l-.083-.083c-.027-.028-.069-.041-.11-.069-.028-.014-.056-.042-.097-.055l-15.282-7.526a.415.415 0 0 0-.139-.055c-.263-.097-6.567-2.297-11.72.013l-11.375 4.11c-.028.013-.07.027-.097.04-1.635.748-2.494 2.422-2.148 4.179.347 1.743 1.76 2.974 3.533 3.057h.028c.11 0 .61-.028 5.791-.36 2.258-.138 4.586-.29 4.794-.304a1.255 1.255 0 0 0 1.205-1.218 1.256 1.256 0 0 0-1.233-1.286c-.07 0-.07 0-4.918.304-2.425.152-5.14.332-5.597.36-.873-.07-1.081-.802-1.137-1.024-.097-.47.042-1.093.693-1.41l11.361-4.11c.028-.013.055-.027.097-.041 3.99-1.812 9.2-.18 9.823.014l6.802 3.348-3.74 8.812a7.605 7.605 0 0 0-6.166-.816L32.54 59.286a7.195 7.195 0 0 1-5.5-.567L3.124 45.784c-.859-.47-.582-1.287-.512-1.453.083-.221.443-.913 1.316-.678l18.579 6.184a1.266 1.266 0 0 0 1.593-.789 1.258 1.258 0 0 0-.79-1.59l-18.62-6.212c-.028-.014-.042-.014-.07-.014-1.842-.498-3.63.388-4.336 2.158-.72 1.785-.041 3.666 1.649 4.593L25.86 60.96a9.683 9.683 0 0 0 7.412.76l15.268-4.579a5.024 5.024 0 0 1 4.142.568l7.787 4.897c.041.028.069.041.11.055.014 0 .014.014.028.014h.014c.014.014.028.014.055.014.028.014.07.028.097.041.014 0 .042.014.056.014.027.014.069.014.097.028.014 0 .041 0 .055.014.056 0 .097.014.153.014.055 0 .11 0 .166-.014.014 0 .041 0 .055-.014.042 0 .07-.014.111-.028.014 0 .042-.014.055-.014.028-.013.07-.027.097-.041.014-.014.042-.014.056-.028a.796.796 0 0 0 .097-.055.105.105 0 0 1 .055-.028c.028-.014.056-.041.083-.055.014-.014.042-.028.056-.042l.07-.069.055-.055c.027-.028.041-.055.055-.083.014-.014.028-.042.041-.055 0 0 0-.014.014-.014 0-.014.014-.028.014-.028.014-.028.042-.07.056-.11l5.541-11.787c.014-.042.028-.07.042-.11.014-.042.028-.084.042-.112.013-.041.013-.083.013-.124 0-.042.014-.083.014-.125.014-.041.014-.083.014-.124z"/><path d="M23.26 2.58c9.78 0 17.733 7.94 17.733 17.707s-7.952 17.707-17.734 17.707c-9.781 0-17.734-7.94-17.734-17.707S13.478 2.579 23.26 2.579m0 37.92c11.167 0 20.242-9.076 20.242-20.212C43.5 9.15 34.412.06 23.259.06S3.004 9.136 3.004 20.287c0 11.15 9.088 20.211 20.255 20.211"/></g></svg>