<svg width="93" height="75" viewBox="0 0 93 75" xmlns="http://www.w3.org/2000/svg"><title>8531418B-6B33-4F30-B1D0-503915190D63</title><g fill="none" fill-rule="evenodd"><path d="M80.109 39.575c-.053.089-.116.19 0 0M66.646 61.04l.038.039c.148.147.084.16-.038-.039m.009.049c.062.1.137.23 0 0m-3.767 5.801c-.134.028-.249.046 0 0m-15.57.911c-.002-.017-.002-.014 0 0m-5.143 3.424c-.091-.045-.17-.09 0 0m-5.254.914l-.088.016-.086.012a3.987 3.987 0 0 1-.618 0 3.73 3.73 0 0 1-.616-.175 5.223 5.223 0 0 1-.824-.5 14.192 14.192 0 0 0-.063-.052c-.096-.078-.189-.161-.28-.244a3.587 3.587 0 0 1-.2-.194c-.037-.05-.13-.17-.163-.223-.027-.045-.08-.161-.11-.228a4.61 4.61 0 0 1-.113-.419c-.007-.058-.032-.233-.037-.298a6.159 6.159 0 0 1 .023-1.008c.008-.057.03-.232.04-.293a10.376 10.376 0 0 1 .274-1.165l4.301 4.301c-.035.016-.07.033-.106.048.022-.013-.316.126-.377.149a6.79 6.79 0 0 1-.957.273m-.022.01c.1-.017.068-.012 0 0m-6.44-6.715c.1-.016.068-.01 0 0m-.6.029a3.592 3.592 0 0 1-.17-.01 3.715 3.715 0 0 1-.616-.175 5.26 5.26 0 0 1-.824-.5 33.817 33.817 0 0 0-.063-.052c-.096-.078-.188-.161-.28-.244a3.586 3.586 0 0 1-.2-.194c-.037-.05-.13-.169-.163-.223-.027-.045-.08-.161-.11-.228a4.667 4.667 0 0 1-.113-.419c-.007-.058-.032-.233-.037-.298a6.17 6.17 0 0 1 .023-1.008c.008-.057.03-.232.04-.293.043-.246.097-.49.157-.731l.057-.219.593.592 3.575 3.575c-.1.04-.25.102-.29.116a6.79 6.79 0 0 1-.957.273l-.088.016-.086.012a3.988 3.988 0 0 1-.448.01m-5.703-7.017c.1-.016.069-.01 0 0m-.6.029a3.788 3.788 0 0 1-.17-.01 3.73 3.73 0 0 1-.598-.167l-.018-.008a5.236 5.236 0 0 1-.824-.5 13.278 13.278 0 0 0-.063-.052c-.096-.078-.188-.161-.28-.244a3.637 3.637 0 0 1-.2-.194c-.037-.05-.13-.17-.163-.223-.027-.046-.08-.161-.11-.228a4.564 4.564 0 0 1-.112-.419c-.008-.058-.033-.233-.038-.298a6.17 6.17 0 0 1 .023-1.008c.008-.057.03-.232.041-.293.022-.13.048-.26.076-.39 1.266 1.267 2.534 2.532 3.803 3.797a6.87 6.87 0 0 1-.745.2l-.088.015c-.033.005-.065.01-.086.011a3.971 3.971 0 0 1-.448.01m10.257-28.583l-.022-.014c.297.171.113.07.022.014M55.195 10.24c-.21-.037-.099-.018 0 0m7.694 23.08c-.1.049-.164.078 0 0m29.458-10.852a1.423 1.423 0 0 0-1.993 0l-7.404 7.404c-.457.458-1.212 1.032-1.16 1.745.016.238.011.479.006.717a15.149 15.149 0 0 1-.093 1.326c-.01.09-.02.181-.032.271v.01a22.167 22.167 0 0 1-.632 2.923 24.439 24.439 0 0 1-1.01 2.848 27.526 27.526 0 0 1-1.854 3.501 29.726 29.726 0 0 1-1.628 2.347 32.419 32.419 0 0 1-.978 1.188 34.739 34.739 0 0 1-3.052 3.107c-.406-.434-.817-.864-1.227-1.292a256.724 256.724 0 0 0-4.476-4.535 666.364 666.364 0 0 0-7.906-7.707c.7.12 1.41.176 2.122.154 1.159-.037 2.462-.25 3.491-.832.667-.378.89-1.272.506-1.928-.392-.669-1.26-.884-1.928-.506a1.649 1.649 0 0 1-.102.052l-.084.033a6.38 6.38 0 0 1-.988.27c-.072.014-.225.038-.323.053a8.873 8.873 0 0 1-1.903-.016 10.406 10.406 0 0 1-1.251-.269 11.663 11.663 0 0 1-1.112-.371l-.173-.07-.01-.003c-.642-.28-1.26-.616-1.855-.984a17.968 17.968 0 0 1-1.246-.846l-.194-.146c-.145-.115-.29-.231-.433-.35a25.866 25.866 0 0 1-2.224-2.089 32.53 32.53 0 0 1-1.584-1.794 89.077 89.077 0 0 0 2.02-1.82c.19-.176.38-.352.563-.535a1.423 1.423 0 0 0 0-1.993 1.423 1.423 0 0 0-1.993 0c-.88.88-1.83 1.694-2.768 2.51a190.24 190.24 0 0 1-4.54 3.82l-.315.257-.063.052c-.444.182-.893.35-1.346.507-.826.286-1.67.518-2.528.688-.183.037-.367.068-.55.097l-.094.014-.148.019c-.354.04-.711.063-1.068.073a10.507 10.507 0 0 1-1.327-.054l-.015-.002-.145-.022a7.783 7.783 0 0 1-1.466-.396l-.061-.024a6.693 6.693 0 0 1-1.098-.628c-.047-.042-.29-.235-.368-.307a6.36 6.36 0 0 1-.618-.657l-.074-.102-.048-.072 9.899-9.899 4.78-4.781c.33-.33.665-.652 1.02-.956a12.882 12.882 0 0 1 .342-.28 11.454 11.454 0 0 1 2.08-1.243l.096-.041.258-.105a10.874 10.874 0 0 1 2.208-.576c.062-.007.123-.015.185-.021a11.664 11.664 0 0 1 1.622-.055c.336.01.671.037 1.005.072l.178.02.025.004a16.644 16.644 0 0 1 2.52.595 19.317 19.317 0 0 1 1.487.543l.236.103a23.653 23.653 0 0 1 4.403 2.579l.067.053c.591.489 1.412.581 1.993 0l7.46-7.46 1.104-1.104a1.423 1.423 0 0 0 0-1.993 1.423 1.423 0 0 0-1.993 0l-7.46 7.46-.244.244a24.108 24.108 0 0 0-2.132-1.325c-2.395-1.332-4.995-2.258-7.727-2.546-1.52-.16-3.08-.04-4.56.334-1.359.343-2.605.947-3.758 1.712-2.744-.621-5.613-.27-8.21.782-.977.396-1.927.858-2.819 1.416l-6.086-6.228-4.887-5c-.537-.55-1.454-.538-1.993 0a1.424 1.424 0 0 0 0 1.993l6.897 7.057 4.887 5c.584.598 1.396.47 1.993 0-.53.418-.199.153-.053.05.216-.155.438-.3.662-.44a16.29 16.29 0 0 1 1.942-1.039l.236-.102a14.381 14.381 0 0 1 3.165-.893l.268-.035a12.08 12.08 0 0 1 1.084-.063l-.284.286-2.413 2.413-4.444 4.444-7.774 7.774c-.335.335-.527.907-.362 1.37.322.909.896 1.728 1.555 2.421 1.468 1.543 3.49 2.3 5.574 2.502 1.488.145 3.018-.068 4.466-.408a21.01 21.01 0 0 0 2.638-.826c.232-.088.462-.181.692-.276.192-.078.382-.16.573-.24.15-.064.36-.282.502-.398a267.241 267.241 0 0 0 2.54-2.096c1.365 1.282 2.727 2.568 4.086 3.857 3.337 3.166 6.66 6.346 9.955 9.556 3.124 3.044 6.249 6.096 9.231 9.28a61.422 61.422 0 0 1 1.49 1.64c.189.217.375.437.557.66l.112.14.098.132c.082.114.16.23.23.353a2.935 2.935 0 0 1 .125.561 4.197 4.197 0 0 1 0 .619c-.001.02-.006.058-.011.096a4.635 4.635 0 0 1-.174.651c-.014.034-.06.149-.078.187a5.015 5.015 0 0 1-.36.612c-.017.026-.068.095-.1.138a5.839 5.839 0 0 1-.683.688c-.005.003-.136.108-.171.134a6.332 6.332 0 0 1-.63.39c-.103.058-.21.109-.315.16l-.068.034a5.156 5.156 0 0 1-.867.256 2.866 2.866 0 0 1-.149.02c-.16.011-.32.008-.479-.003a4.025 4.025 0 0 1-.12-.027l-.087-.024-.237-.237-2.792-2.792-2.141-2.141-7.352-7.353-2.412-2.41c-1.594-1.596-3.189-3.19-4.784-4.785l-.383-.383a1.423 1.423 0 0 0-1.993 0 1.423 1.423 0 0 0 0 1.992l5.257 5.258 9.764 9.764 5.093 5.093.005.009.046.116c.164.42.297.853.405 1.291.05.202.09.406.125.61-.006-.016.028.262.034.338a5.331 5.331 0 0 1-.006.873l-.003.023-.023.122a3.892 3.892 0 0 1-.113.423l-.016.043a1.774 1.774 0 0 1-.189.353c.014-.029-.156.196-.212.253-.041.042-.18.157-.227.198-.073.05-.147.099-.221.146-.2.125-.41.232-.623.332-.033.013-.252.107-.312.13a12.386 12.386 0 0 1-1.709.485l-4.759-4.514-10.037-9.523-5.999-5.69a23.638 23.638 0 0 0-.042-.041c-.557-.529-1.44-.554-1.993 0a1.423 1.423 0 0 0 0 1.993l5.864 5.863 9.31 9.311 1.69 1.689a8.316 8.316 0 0 1-.037.553l-.017.11a6.671 6.671 0 0 1-.262 1.012 5.51 5.51 0 0 1-.074.192c-.124.27-.278.524-.447.768a3.23 3.23 0 0 1-.357.377c-.003-.004-.17.125-.224.158-.043.026-.18.092-.228.117-.19.066-.387.113-.585.15a5.138 5.138 0 0 1-.845.005c-.065-.004-.255-.026-.308-.03a6.877 6.877 0 0 1-.951-.222l-5.431-5.432-9.561-9.56-3.08-3.08a1.423 1.423 0 0 0-1.993 0 1.424 1.424 0 0 0 0 1.992l6.593 6.724 7.163 7.305a3.802 3.802 0 0 1 .204.37 3.617 3.617 0 0 1 .152.539l.004.018.003.038c.01.132.009.266.003.399v.009c-.009.054-.022.14-.032.185a2.86 2.86 0 0 1-.083.29c.014-.056-.13.284-.178.367-.047.082-.099.16-.15.238-.016.024-.059.08-.09.122-.142.17-.297.329-.457.482-.089.085-.182.165-.275.245-.01.008-.175.136-.198.157-.193.14-.393.27-.597.393a6.19 6.19 0 0 1-.516.277c-.035.015-.163.073-.197.085-.13.05-.263.09-.396.128-.144.042-.29.073-.437.1.168-.032-.275.02-.376.021-.1.002-.2-.002-.3-.009.032-.003-.322-.052-.42-.077a4.24 4.24 0 0 1-.403-.128l-.09-.042a4.588 4.588 0 0 1-.626-.374 2.887 2.887 0 0 1-.336-.316c-.86-.946-1.817-1.819-2.721-2.723l-7.17-7.17-9.427-9.427c-1.568-1.567-3.104-3.144-4.476-4.888l-.135-.175-.217-.29a35.87 35.87 0 0 1-1.252-1.799 32.088 32.088 0 0 1-1.343-2.26 29.266 29.266 0 0 1-1.034-2.116l-.09-.21-.007-.016a26.892 26.892 0 0 1-.552-1.453 23.052 23.052 0 0 1-.87-3.234c-.04-.209-.075-.42-.108-.63-.012-.072-.022-.143-.032-.215l-.009-.067a15.305 15.305 0 0 1-.084-.944 8.28 8.28 0 0 1-.012-.916c.038-.7-.578-1.177-1.024-1.623l-1.992-1.992-4.58-4.58-.763-.763a1.423 1.423 0 0 0-1.993 0 1.423 1.423 0 0 0 0 1.993l7.471 7.47.049.05c.009.832.144 1.681.275 2.488.411 2.518 1.309 4.947 2.431 7.23 1.766 3.59 4.267 6.818 7.075 9.654l.256.257c-.639 1.721-.995 3.698-.436 5.44.545 1.696 2.152 2.935 3.8 3.478.785.259 1.582.271 2.364.139-.202 1.136-.206 2.298.139 3.37.545 1.697 2.152 2.936 3.8 3.48.817.268 1.646.27 2.459.121-.159 1.054-.138 2.122.18 3.113.546 1.697 2.153 2.936 3.802 3.48 1.714.564 3.482-.045 5.038-.77.234-.11.407-.293.521-.512 1.443.81 3.163 1.007 4.8.425 1.995-.708 3.868-2.237 4.6-4.262l1.295 1.294c.31.31.546.524.997.69a7.792 7.792 0 0 0 3.904.366c2.023-.322 3.366-2.066 3.965-3.91.066-.203.12-.411.167-.622l1.843 1.748c.442.42.894.475 1.454.397.396-.054.788-.136 1.176-.228 1.493-.357 3.176-.972 4.184-2.188 1.233-1.484 1.328-3.386.966-5.207a8.136 8.136 0 0 0-.037-.173c.35-.05.696-.135 1.034-.25 2.06-.696 3.694-2.217 4.506-4.227.395-.975.406-2.043.239-3.065a3.622 3.622 0 0 0-.409-1.194c-.228-.401-.53-.767-.824-1.124 4.678-4.199 8.422-9.659 9.76-15.863.27-1.258.51-2.614.495-3.926l6.969-6.969.748-.748a1.423 1.423 0 0 0 0-1.993" fill="#FFF"/></g></svg>