<svg width="63" height="63" viewBox="0 0 63 63" xmlns="http://www.w3.org/2000/svg"><title>DE3DE15A-685F-4877-825B-9DAF7697AE67</title><g fill-rule="nonzero" fill="#1F2C3F"><path d="M30.844.279l-3.15 1.309c-1.684.7-2.481 2.657-1.787 4.343l.81 1.97a20.14 20.14 0 0 0-4.14 4.174l-1.954-.817a3.267 3.267 0 0 0-2.52 0 3.305 3.305 0 0 0-1.787 1.802l-1.312 3.176c-.694 1.698.103 3.643 1.787 4.343l2.893 1.205a1.26 1.26 0 0 0 1.659-.7c.27-.66-.039-1.4-.694-1.672l-2.893-1.206a.77.77 0 0 1-.412-.998l1.312-3.176a.762.762 0 0 1 .411-.414.746.746 0 0 1 .579 0l2.893 1.205a1.264 1.264 0 0 0 1.542-.467 17.497 17.497 0 0 1 4.899-4.938c.501-.337.707-.999.476-1.556L28.26 4.945a.776.776 0 0 1 .411-.998l3.15-1.309a.746.746 0 0 1 .579 0c.18.078.334.22.411.415l1.196 2.916c.232.57.823.895 1.427.765a17.501 17.501 0 0 1 6.917 0 1.287 1.287 0 0 0 1.428-.765l1.195-2.916a.76.76 0 0 1 .99-.415l3.15 1.322a.764.764 0 0 1 .411.998L48.33 7.875a1.286 1.286 0 0 0 .463 1.556 17.497 17.497 0 0 1 4.898 4.938c.335.506.99.713 1.543.48l2.893-1.205a.746.746 0 0 1 .579 0c.18.077.334.22.411.414l1.299 3.176a.764.764 0 0 1-.412.998l-2.893 1.206a1.28 1.28 0 0 0-.758 1.439c.463 2.307.45 4.667 0 6.974a1.302 1.302 0 0 0 .758 1.439l2.893 1.205a.77.77 0 0 1 .412.999l-1.312 3.175a.76.76 0 0 1-.99.415l-2.893-1.205a1.264 1.264 0 0 0-1.542.466 17.497 17.497 0 0 1-4.899 4.94 1.296 1.296 0 0 0-.476 1.555l1.196 2.916a.764.764 0 0 1-.411.999l-3.15 1.309a.746.746 0 0 1-.579 0 .762.762 0 0 1-.411-.415l-1.196-2.917a1.263 1.263 0 0 0-1.659-.7 1.281 1.281 0 0 0-.694 1.673l1.196 2.916a3.321 3.321 0 0 0 3.047 2.061c.424 0 .861-.09 1.26-.259l3.15-1.31a3.305 3.305 0 0 0 1.787-1.801 3.344 3.344 0 0 0 0-2.54l-.81-1.971a20.14 20.14 0 0 0 4.14-4.174l1.954.817a3.287 3.287 0 0 0 4.307-1.802l1.312-3.176c.694-1.698-.103-3.643-1.787-4.343L59 27.306c.283-1.957.283-3.94 0-5.898l1.955-.816a3.305 3.305 0 0 0 1.787-1.802 3.344 3.344 0 0 0 0-2.54l-1.299-3.177a3.305 3.305 0 0 0-1.787-1.802 3.267 3.267 0 0 0-2.52 0l-1.954.817a20.08 20.08 0 0 0-4.127-4.174l.81-1.97a3.344 3.344 0 0 0 0-2.541A3.305 3.305 0 0 0 50.079 1.6L46.929.279A3.287 3.287 0 0 0 42.62 2.08l-.81 1.97a20.107 20.107 0 0 0-5.85 0l-.81-1.97A3.305 3.305 0 0 0 33.364.279a3.267 3.267 0 0 0-2.52 0z"/><path d="M49.23 24.273c-.039-5.73-4.68-10.357-10.35-10.357h-.077a10.29 10.29 0 0 0-7.303 3.11c-1.941 1.984-2.996 4.616-2.983 7.403 0 .7.579 1.27 1.273 1.27h.013c.707 0 1.273-.583 1.26-1.296a7.884 7.884 0 0 1 2.25-5.587 7.696 7.696 0 0 1 5.503-2.347h.051c4.282 0 7.779 3.5 7.804 7.817.026 4.343-3.445 7.895-7.752 7.933-.708 0-1.273.584-1.26 1.297 0 .7.578 1.27 1.272 1.27h.013c5.722-.039 10.325-4.757 10.286-10.513zM17.396 62.968h2.481c1.517 0 2.752-1.245 2.752-2.774V58.91a14.515 14.515 0 0 0 3.522-1.478l.9.908a2.733 2.733 0 0 0 1.942.816 2.68 2.68 0 0 0 1.941-.816l1.749-1.763c.514-.519.81-1.219.81-1.958 0-.738-.283-1.438-.81-1.957l-.9-.907a14.767 14.767 0 0 0 1.466-3.552h1.272c1.518 0 2.752-1.245 2.752-2.774v-2.502c0-1.53-1.234-2.774-2.752-2.774H33.25a14.767 14.767 0 0 0-1.466-3.552l.9-.907c.514-.519.81-1.219.81-1.958 0-.739-.283-1.439-.81-1.957l-1.749-1.763a2.733 2.733 0 0 0-1.941-.817 2.68 2.68 0 0 0-1.942.817l-.9.907a14.515 14.515 0 0 0-3.522-1.478v-1.283c0-1.53-1.235-2.774-2.752-2.774h-2.481c-1.517 0-2.752 1.244-2.752 2.774v1.283c-1.234.337-2.417.83-3.523 1.478l-.9-.907a2.733 2.733 0 0 0-1.941-.817 2.68 2.68 0 0 0-1.941.817L4.59 31.779a2.794 2.794 0 0 0 0 3.915l.9.907a14.767 14.767 0 0 0-1.466 3.552H2.751C1.234 40.153 0 41.397 0 42.927v2.502c0 1.53 1.234 2.774 2.751 2.774h1.273a14.767 14.767 0 0 0 1.466 3.552l-.9.907a2.794 2.794 0 0 0 0 3.915l1.749 1.763a2.733 2.733 0 0 0 1.941.816 2.68 2.68 0 0 0 1.941-.816l.9-.908a14.515 14.515 0 0 0 3.523 1.478v1.284c.013 1.53 1.247 2.774 2.752 2.774zm-5.747-8.219a1.298 1.298 0 0 0-.708-.22c-.334 0-.655.13-.9.376l-1.607 1.62a.196.196 0 0 1-.141.065.196.196 0 0 1-.142-.065l-1.748-1.763a.205.205 0 0 1 0-.285l1.607-1.62a1.284 1.284 0 0 0 .154-1.62 12.558 12.558 0 0 1-1.877-4.564 1.282 1.282 0 0 0-1.247-1.037H2.764a.204.204 0 0 1-.205-.207v-2.502c0-.117.09-.208.205-.208H5.04a1.27 1.27 0 0 0 1.247-1.037 12.558 12.558 0 0 1 1.877-4.563 1.301 1.301 0 0 0-.154-1.62l-1.607-1.62a.205.205 0 0 1 0-.285L8.15 31.83a.196.196 0 0 1 .142-.065c.038 0 .09.013.141.065l1.607 1.646a1.258 1.258 0 0 0 1.608.155 12.344 12.344 0 0 1 4.525-1.892 1.287 1.287 0 0 0 1.029-1.258v-2.294c0-.117.09-.207.206-.207h2.481c.116 0 .206.09.206.207v2.294c0 .61.424 1.141 1.028 1.258 1.62.324 3.15.96 4.526 1.892a1.275 1.275 0 0 0 1.607-.155l1.607-1.62a.196.196 0 0 1 .142-.065c.038 0 .09.013.141.064l1.749 1.763a.2.2 0 0 1 .064.143.2.2 0 0 1-.064.143l-1.607 1.62a1.284 1.284 0 0 0-.155 1.62 12.558 12.558 0 0 1 1.877 4.563 1.282 1.282 0 0 0 1.248 1.037h2.275c.116 0 .206.091.206.208v2.502c0 .116-.09.207-.206.207H32.26a1.27 1.27 0 0 0-1.248 1.037 12.558 12.558 0 0 1-1.877 4.563 1.301 1.301 0 0 0 .155 1.62l1.607 1.62a.2.2 0 0 1 .064.143.2.2 0 0 1-.064.143l-1.749 1.763a.196.196 0 0 1-.141.065.196.196 0 0 1-.142-.065l-1.607-1.62a1.258 1.258 0 0 0-1.607-.156 12.344 12.344 0 0 1-4.526 1.893 1.287 1.287 0 0 0-1.028 1.257v2.294c0 .117-.09.208-.206.208h-2.481a.204.204 0 0 1-.206-.208v-2.294c0-.61-.424-1.14-1.029-1.257-1.62-.35-3.15-.986-4.525-1.919z"/><path d="M26.19 44.197c0-4.2-3.394-7.622-7.56-7.622-4.166 0-7.547 3.422-7.547 7.622 0 4.2 3.394 7.622 7.56 7.622 4.166 0 7.547-3.422 7.547-7.622zm-12.561 0c0-2.787 2.25-5.055 5.014-5.055 2.764 0 5.014 2.268 5.014 5.055s-2.25 5.056-5.014 5.056c-2.764 0-5.014-2.282-5.014-5.056z"/></g></svg>