<svg width="87" height="76" viewBox="0 0 87 76" xmlns="http://www.w3.org/2000/svg" xmlns:xlink="http://www.w3.org/1999/xlink"><title>B9FA46E3-AF65-4A05-B2CC-DAC61652B627</title><defs><path id="a" d="M5.76 2.893H0V0h5.76v2.893z"/><path id="c" d="M17.282 2.893H0V0h17.282z"/><path id="e" d="M0 1.447v1.446h23.042V0H0z"/><path id="g" d="M25.923 0v60.758H0V0h25.923z"/><path id="i" d="M25.923 2.893H0V0h25.923z"/></defs><g fill="none" fill-rule="evenodd"><g transform="translate(51.846 72.331)"><mask id="b" fill="#fff"><use xlink:href="#a"/></mask><path d="M4.32 0H1.44C.645 0 0 .648 0 1.447c0 .798.645 1.446 1.44 1.446h2.88c.795 0 1.44-.648 1.44-1.446C5.76.648 5.116 0 4.32 0" fill="#FFF" mask="url(#b)"/></g><g transform="translate(28.803 72.331)"><mask id="d" fill="#fff"><use xlink:href="#c"/></mask><path d="M15.842 0H1.44C.645 0 0 .648 0 1.447c0 .798.645 1.446 1.44 1.446h14.402c.795 0 1.44-.648 1.44-1.446 0-.799-.645-1.447-1.44-1.447" fill="#FFF" mask="url(#d)"/></g><g transform="translate(0 72.331)"><mask id="f" fill="#fff"><use xlink:href="#e"/></mask><path d="M21.602 0H1.44C.645 0 0 .648 0 1.447c0 .798.645 1.446 1.44 1.446h20.162c.795 0 1.44-.648 1.44-1.446 0-.799-.645-1.447-1.44-1.447" fill="#FFF" mask="url(#f)"/></g><g transform="translate(60.487 8.68)"><mask id="h" fill="#fff"><use xlink:href="#g"/></mask><path d="M10.081 57.865c-3.97 0-7.2-3.245-7.2-7.233 0-3.988 3.23-7.233 7.2-7.233s7.2 3.245 7.2 7.233c0 3.988-3.23 7.233-7.2 7.233m13.98-29.955l-3.948-3.965-1.391-16.712c0-3.988-3.23-7.233-7.2-7.233H1.44C.645 0 0 .648 0 1.447c0 .798.645 1.446 1.44 1.446h10.081c2.342 0 4.32 1.988 4.325 4.46l1.31 15.793h-4.745l1.838-3.693a1.447 1.447 0 0 0-.644-1.94 1.436 1.436 0 0 0-1.933.646l-2.48 4.987H1.44c-.795 0-1.44.648-1.44 1.446 0 .799.645 1.447 1.44 1.447h16.686l3.898 3.916c.821.824 1.016 2.72 1.019 3.317v1.447h-1.44c-.796 0-1.44.648-1.44 1.446 0 .799.644 1.447 1.44 1.447h1.44v11.573h-2.996c-.701-4.9-4.897-8.68-9.966-8.68C4.522 40.505 0 45.047 0 50.63s4.522 10.127 10.081 10.127c5.07 0 9.265-3.78 9.966-8.68h4.436c.795 0 1.44-.648 1.44-1.447V33.272c0-.357-.052-3.545-1.862-5.362" fill="#FFF" mask="url(#h)"/></g><path d="M21.602 60.758a1.446 1.446 0 1 1 0-2.893c.794 0 1.44.65 1.44 1.447s-.646 1.446-1.44 1.446m0-5.786c-2.382 0-4.32 1.947-4.32 4.34 0 2.392 1.938 4.34 4.32 4.34 2.382 0 4.32-1.948 4.32-4.34 0-2.393-1.938-4.34-4.32-4.34" fill="#FFF"/><g transform="translate(60.487 72.331)"><mask id="j" fill="#fff"><use xlink:href="#i"/></mask><path d="M24.483 0H1.44C.645 0 0 .648 0 1.447c0 .798.645 1.446 1.44 1.446h23.043c.794 0 1.44-.648 1.44-1.446 0-.799-.645-1.447-1.44-1.447" fill="#FFF" mask="url(#j)"/></g><path d="M70.568 60.758a1.446 1.446 0 1 1 0-2.893c.793 0 1.44.65 1.44 1.447s-.647 1.446-1.44 1.446m0-5.786c-2.382 0-4.32 1.947-4.32 4.34 0 2.392 1.938 4.34 4.32 4.34 2.382 0 4.32-1.948 4.32-4.34 0-2.393-1.938-4.34-4.32-4.34M21.602 66.545c-3.97 0-7.2-3.245-7.2-7.233 0-3.989 3.23-7.234 7.2-7.234s7.201 3.245 7.201 7.234c0 3.988-3.23 7.233-7.2 7.233M56.165 0H7.201C3.23 0 0 3.245 0 7.233v46.292c0 4.056 3.163 7.233 7.2 7.233.796 0 1.44-.648 1.44-1.446 0-.799-.644-1.447-1.44-1.447-2.421 0-4.32-1.906-4.32-4.34V7.233c0-2.392 1.939-4.34 4.32-4.34h47.526V43.4H7.201c-.795 0-1.44.648-1.44 1.446 0 .799.645 1.447 1.44 1.447h47.525v11.573H31.568c-.701-4.9-4.898-8.68-9.966-8.68-5.559 0-10.08 4.543-10.08 10.126 0 5.584 4.521 10.127 10.08 10.127 5.068 0 9.265-3.78 9.966-8.68h24.598c.795 0 1.44-.648 1.44-1.446V1.447c0-.799-.645-1.447-1.44-1.447" fill="#FFF"/></g></svg>