<svg width="59" height="59" viewBox="0 0 59 59" xmlns="http://www.w3.org/2000/svg"><title>DD7DDB59-E0D0-45A5-ADB1-05F2423C3DC5</title><g fill-rule="nonzero" fill="#1F2C3F"><path d="M25.773 34.856c.228.228.529.348.841.348.313 0 .613-.12.841-.348l9.878-9.878a1.182 1.182 0 0 0 0-1.682 1.182 1.182 0 0 0-1.683 0l-9.036 9.036-3.821-3.821a1.182 1.182 0 0 0-1.682 0 1.182 1.182 0 0 0 0 1.682l4.662 4.663z"/><path d="M1.783 54.11a2.266 2.266 0 0 0-1.25 2.39 2.282 2.282 0 0 0 1.911 1.923c.733.12 1.526.168 2.331.168 2.187 0 6.357-.444 10.442-3.352a29.494 29.494 0 0 0 14.228 3.653c7.87 0 15.26-3.064 20.824-8.628 11.487-11.487 11.487-30.16 0-41.648C44.705 3.064 37.315 0 29.445 0 21.574 0 14.184 3.064 8.62 8.628-2.182 19.43-2.89 36.746 6.878 48.366c-1.346 2.811-3.064 4.746-5.095 5.743zm8.326-43.994c5.107-5.107 11.909-7.93 19.142-7.93 7.234 0 14.023 2.811 19.142 7.93 10.55 10.55 10.55 27.722 0 38.284-5.107 5.107-11.908 7.93-19.142 7.93-4.83 0-9.565-1.285-13.71-3.724a1.228 1.228 0 0 0-.601-.169 1.18 1.18 0 0 0-.733.253 15.835 15.835 0 0 1-9.637 3.328c-.577 0-1.142-.036-1.682-.108 2.595-1.358 4.698-3.87 6.272-7.462.18-.42.108-.913-.204-1.262-9.445-10.682-8.94-26.964 1.153-37.07z"/></g></svg>